<svg viewBox="0 0 298 100" xmlns="http://www.w3.org/2000/svg"><title>wl_logo</title><g fill="none" fill-rule="evenodd"><path d="M20.557 34.286a27.196 27.196 0 0 1 6.189 2.257 232.526 232.526 0 0 1 3.343-6.285 233.812 233.812 0 0 1-7.007-4.141 25.69 25.69 0 0 0-2.525 8.17" fill="#008E61"/><path d="M.075 100c3.743-2.646 36.637-30.89 49.17-42.074 6.399-5.71 10.158-10.171 12.114-14.522 6.9-15.344 1.064-32.516-17.55-40.362C31.028-2.346 13.29.525 4.702 11.529c13.584-9.185 34.196-7.193 44.184 5.782 4.425 5.943 5.528 14.014 2.273 21.252-3.256 7.24-10.09 11.746-17.475 12.375C24.509 65.565 11.899 83.608.074 100" fill="#1A1919"/><path d="M12.664 21.247c.008-.018.603-1.234.654-1.328 2.967-5.577 8.054-9.405 13.8-10.927C12.391 7.402 1.265 17.073.061 30.926c-.039 9.514-.122 26.117.014 41.24 3.524-13.577 8.259-29.073 11.1-38.354a21.002 21.002 0 0 1 1.489-12.565" fill="#CF3B40"/><path d="M41.11 14.501a231.648 231.648 0 0 1-3.106 6.464c1.644.903 3.306 1.773 4.99 2.608a25.794 25.794 0 0 1-.22 1.893 57.452 57.452 0 0 1-5.708-2.647 229.81 229.81 0 0 1-3.42 6.434 233.859 233.859 0 0 1 6.677 3.927c-.34.677-.71 1.339-1.11 1.984a233.958 233.958 0 0 1-6.84-3.633 234.387 234.387 0 0 1-3.611 6.152 27.112 27.112 0 0 1 4.85 3.857c-.507.413-1.032.807-1.573 1.184a40.384 40.384 0 0 0-4.465-3.108 234.01 234.01 0 0 1-3.857 5.998c8.505 4.38 19.013 1.263 23.72-7.153 4.705-8.417 1.858-19.005-6.327-23.96" fill="#175992"/><path d="M24.328 13.592a17.736 17.736 0 0 0-7.708 6.918c1.836.848 3.66 1.718 5.472 2.613a22.85 22.85 0 0 1 5.836-6.344 55.708 55.708 0 0 1-3.6-3.187m-5.656 22.055a43.12 43.12 0 0 0-3.958-1.016 17.8 17.8 0 0 0 5.268 8.42 24.48 24.48 0 0 1-1.31-7.404m.038-1.727a22.911 22.911 0 0 1 2.393-9.027 231.42 231.42 0 0 1-5.09-3.295 17.761 17.761 0 0 0-1.569 11.944 29.29 29.29 0 0 1 4.266.377m10.662-18.124a24.387 24.387 0 0 1 7.595-3.135 17.825 17.825 0 0 0-11.548.462c1.308.914 2.624 1.809 3.953 2.673" fill="#F7C124"/><path d="M36.144 19.924a233.056 233.056 0 0 1 3.88-6.03 17.75 17.75 0 0 0-1.66-.751A26.092 26.092 0 0 0 31 16.838a136.244 136.244 0 0 0 5.145 3.086M25.721 38.566a40.175 40.175 0 0 0-5.345-2.352 26.084 26.084 0 0 0 .726 7.758c.485.366.993.711 1.524 1.033 1-2.163 2.03-4.31 3.095-6.439M24.172 24.17a230.9 230.9 0 0 1 7.195 3.802c1.196-2.109 2.423-4.2 3.685-6.272a56.892 56.892 0 0 1-5.547-3.69 25.715 25.715 0 0 0-5.333 6.16" fill="#008E61"/><path d="M108.455 12.182v23.654h-5.721c-5.214 0-8.647-3.178-8.647-8.774v-14.88H91.29v14.88c0 3.722 1.204 6.76 3.432 8.774h-8.39c-5.215 0-8.648-3.178-8.648-8.774v-14.88h-2.799v14.88c0 6.868 4.07 11.446 11.19 11.446h25.178V12.182h-2.798m33.908 13.862c0 6.104-3.816 9.792-9.028 9.792h-2.925c-5.214 0-9.028-3.688-9.028-9.792v-1.782c0-6.104 3.814-9.79 9.028-9.79h2.925c5.212 0 9.028 3.686 9.028 9.79v1.782zM133.461 11.8h-3.18c-7.628 0-11.696 5.596-11.696 12.463v1.782c0 6.868 4.068 12.464 11.697 12.464h3.18c7.629 0 11.697-5.596 11.697-12.464v-1.782c0-6.867-4.068-12.463-11.698-12.463zm97.291 14.244c0 6.104-3.815 9.792-9.028 9.792h-9.282V14.852h9.282c5.213 0 9.028 3.689 9.028 9.793v1.4zm-8.901-13.862h-12.208v26.326h12.208c7.63 0 11.697-5.596 11.697-12.464v-1.4c0-6.866-4.068-12.462-11.697-12.462zM186.17 31.005V12.182h-2.798v19.586c0 4.068 2.162 6.74 6.614 6.74h12.713v-2.672h-11.95c-2.799 0-4.578-1.525-4.578-4.831m-16.919-6.742h-13.859v-9.412h12.968c2.797 0 4.578 1.528 4.578 4.834v5.455c-.982-.554-2.194-.877-3.687-.877m4.488 1.431l1.997-1.872v-4.9c0-4.07-2.162-6.74-6.611-6.74h-16.53v26.326h2.797V26.935h13.096c2.797 0 4.578 1.525 4.578 4.833v6.74h2.798v-7.503c0-2.302-.718-4.132-2.125-5.31M81.834 65.494c-.583-.578-.832-1.38-.832-2.68V45.787h-6.117v18.019c0 2.552.808 4.688 2.34 6.176 1.492 1.456 3.355 2.131 5.86 2.131h13.702v-5.708H84.224c-.968 0-1.793-.313-2.39-.911m52.242-16.439c-2.037 1.988-3.24 4.725-3.525 7.976h-.07l.002 3.025h.03c.144 3.606 1.36 6.64 3.563 8.79 2.287 2.229 5.156 3.267 9.032 3.267h11.68v-5.705h-11.531c-.936 0-3.287-.174-4.899-1.787-1.164-1.166-1.754-2.944-1.754-5.284v-.786c.001-2.337.59-4.109 1.754-5.271 1.612-1.613 3.963-1.788 4.899-1.788h11.53v-5.705h-11.68c-3.875 0-6.746 1.038-9.031 3.268m75.922 15.676c-1.614 1.614-3.965 1.79-4.898 1.79h-3.79c-.936 0-3.285-.176-4.899-1.79-1.165-1.165-1.754-2.941-1.754-5.285v-1.159c.003-2.334.593-4.108 1.754-5.27 1.614-1.612 3.963-1.79 4.9-1.79h3.789c.933 0 3.284.178 4.898 1.79 1.165 1.165 1.755 2.943 1.755 5.283v1.146c0 2.344-.59 4.12-1.755 5.285m7.876-7.199h-.032c-.155-3.584-1.368-6.599-3.564-8.74-2.285-2.23-5.155-3.268-9.03-3.268h-4.086c-3.877 0-6.747 1.038-9.033 3.268-2.193 2.141-3.409 5.156-3.563 8.74h-.03v2.676h.03c.152 3.587 1.368 6.606 3.563 8.748 2.286 2.23 5.156 3.267 9.033 3.267h4.085c3.876 0 6.746-1.038 9.031-3.267 2.197-2.142 3.41-5.161 3.564-8.748h.032v-2.676m67.572 8.745c-.967 0-1.79-.314-2.389-.91-.582-.577-.83-1.38-.83-2.68v-1.385h12.364v-5.705h-12.364v-.512c0-1.3.248-2.1.833-2.681.594-.592 1.419-.907 2.386-.907h12.063v-5.71h-13.2c-2.506 0-4.368.678-5.862 2.132-1.53 1.488-2.339 3.624-2.339 6.175v9.585c0 2.552.81 4.689 2.339 6.176 1.494 1.453 3.356 2.13 5.862 2.13h13.2v-5.708h-12.063m-108.904-9.265h-11.581v-5.516h10.444c.965 0 1.791.314 2.387.91.583.577.832 1.38.832 2.682v2.118a10.875 10.875 0 0 0-2.082-.194m0-11.224h-17.705v26.326h6.124V62.72h10.444c.967 0 1.791.312 2.387.91.583.578.832 1.38.832 2.68v5.802h6.117V65.32c0-2.552-.807-4.688-2.337-6.176-.025-.023-.05-.042-.074-.066l2.41-2.41v-2.572c0-2.552-.806-4.69-2.336-6.177-1.495-1.453-3.358-2.13-5.862-2.13m47.518 2.129c-1.53 1.488-2.337 3.624-2.337 6.178v7.722l16.993.002v.992c0 1.304-.248 2.106-.834 2.685-.595.593-1.42.907-2.386.907h-13.773v5.709h14.911c2.505 0 4.367-.675 5.862-2.13 1.53-1.489 2.338-3.625 2.338-6.177v-7.691H227.84v-1.03c0-1.299.25-2.1.834-2.68.595-.596 1.42-.91 2.386-.91h13.774v-5.708h-14.912c-2.503 0-4.367.677-5.861 2.131m-117.142 3.579h7.007c.933 0 3.284.174 4.898 1.79 1.065 1.064 1.626 2.668 1.718 4.723h-13.623v-6.513zm19.78 7.074c0-3.928-1.244-7.216-3.596-9.509-2.284-2.231-5.154-3.267-9.03-3.267l-13.28-.006v26.317h6.126v-8.392h13.672v8.392h6.108V58.57zm124.585-10.653c-1.53 1.488-2.338 3.624-2.338 6.178v7.722l16.995.002v.992c0 1.304-.25 2.106-.836 2.685-.595.593-1.417.907-2.385.907h-13.774v5.709h14.91c2.506 0 4.367-.675 5.863-2.13 1.53-1.489 2.338-3.625 2.338-6.177v-7.691h-16.994v-1.03c0-1.299.25-2.1.834-2.68.595-.596 1.42-.91 2.387-.91h13.773v-5.708h-14.912c-2.504 0-4.366.677-5.86 2.131m40.103 27.619v.676h-1.909v4.992h-.774v-4.992h-1.908v-.676h4.59m.687 0h1.1l1.627 4.789 1.616-4.789h1.092v5.668h-.732V77.86a75.464 75.464 0 0 0 .014-1.436l-1.616 4.781h-.76l-1.633-4.781v.175c0 .14.003.352.012.636.008.282.011.49.011.625v3.345h-.731v-5.668" fill="#1A1919"/></g></svg>