<svg xmlns="http://www.w3.org/2000/svg" viewBox="1342.37 1413.15 9528.93 3773.67"><defs><style>.cls-1,.cls-7{fill:#b4b3b7;}.cls-1,.cls-2,.cls-3,.cls-4,.cls-5{fill-rule:evenodd;}.cls-2{fill:#fff;}.cls-3{fill:#e5261e;}.cls-4,.cls-6{fill:#f8aa18;}.cls-5{fill:#010000;}</style></defs><g id="Sign_Banner" data-name="Sign&amp;Banner"><path class="cls-1" d="M3939.9,1999.52c-231.67-362.67-699.81-586.34-1217.44-586.34-519.21,0-987.31,223.67-1219,586.34-147,228.47-268.39,619.9-11.19,1179.07l768.47,1667.93c97.45,212.5,270,340.29,461.7,340.29,190.14,0,362.66-127.79,460.12-340.29l768.51-1667.93c108.64-236.44,150.17-444.16,150.17-619.89,0-241.26-76.65-426.61-161.36-559.18"/><path class="cls-2" d="M3900,2025.08c-223.67-348.29-674.18-565.59-1177.49-565.59-504.84,0-955.38,217.3-1179,565.59-140.57,218.91-255.64,594.34-8,1134.3l766.88,1668c91.06,194.85,247.6,311.51,420.15,311.51,171,0,327.53-116.66,418.63-311.51l766.84-1668c247.62-540,132.61-915.39-8-1134.3"/><path class="cls-3" d="M3086.76,2028.25l67.11-134.18c-139-40-286-59.13-431.41-59.13-723.71,0-1431.48,575.15-1137.52,1300.5l20.8,43.15c17.56-647.06,567.17-1009.69,1116.72-1009.69q50.37,0,100.69,4.74c81.45-87.86,198.11-129.42,263.61-145.39"/><path class="cls-4" d="M3153.87,1894.07s166.13-49.53,230-49.53c410.6,0,557.59,386.67,568.79,420.18-156.59-484.09-693.38-750.88-1230.24-750.88-805.19,0-1608.83,595.93-1137.52,1621.6-294-725.35,413.81-1300.5,1137.52-1300.5,145.37,0,292.39,19.17,431.41,59.13"/><path class="cls-1" d="M2291.09,2886.21c73.52,162.95,239.67,278,431.37,278,260.45,0,472.93-212.48,472.93-472.92a462.38,462.38,0,0,0-17.57-126.21c-11.19-12.77-25.55-22.38-41.53-31.94,11.15,39.94,17.58,81.47,17.58,124.59,0,255.64-207.71,461.73-461.72,461.73-172.56,0-322.75-94.26-401.06-233.25"/><path class="cls-5" d="M3952.7,2266.35c-6.42-20.78-150.24-421.81-568.79-421.81-63.91,0-230,49.53-230,49.53l-67.11,134.18c-76.69,19.21-226.86,71.91-305.19,198.13C2681,2387.75,2772,2629,2772,2629c57.51-119.83,161.39-167.75,255.64-167.75,161.39,0,215.67,129.39,215.67,230.06,0,287.6-233.23,520.86-520.84,520.86-289.15,0-522.4-233.26-522.4-520.86,0-289.16,233.25-522.39,522.4-522.39-549.55,0-1099.16,362.63-1116.72,1009.69L1700,3384.66a78.59,78.59,0,0,1,6.39,12.82l147-286c25.58,94.3,62.31,191.79,108.62,294l-132.59,258.88c47.92,105.4,107,233.19,166.14,362.63l145.39-290.83q81.47,131.77,177.34,263.7l-174.12,349.81c81.47,175.82,150.17,327.59,185.31,402.7l226.87-457c73.5,84.71,151.76,167.78,233.3,247.67l-244.47,490.45c186.92,113.45,421.8,36.73,544.79-230.1l645.43-1401.09,123.05-266.83c155-338.71,172.54-631.05,94.28-869.09"/><path class="cls-6" d="M4642.31,3045.87h108.58c142.12,0,183.63-127.18,183.63-209.23,0-102.42-48.57-138.62-124.46-138.62h-94.53l-73.22,347.85m-60.92-489.07H4818c161.57,0,280.69,72.41,280.69,266.59,0,196-119.12,363.68-369,363.68H4448.09Z"/><polyline class="cls-6" points="5254.06 2556.8 5418.22 2556.8 5315.81 3045.87 5610.69 3045.87 5580.72 3187.07 5122.51 3187.07 5254.06 2556.8"/><path class="cls-6" d="M5864.22,3017.45h103.94l-17.25-163.8h-1.22l-85.47,163.8m49.71-285.56h119.9l74.52,455.18H5989.18l-10.85-81.64h-160l-45.93,81.64h-124.3Z"/><polyline class="cls-6" points="6356.37 2946.72 6249.93 2731.89 6380.68 2731.89 6434.84 2872.11 6539.33 2731.89 6682.14 2731.89 6492.84 2948.66 6605.01 3187.07 6470.54 3187.07 6409.98 3035.97 6291.42 3187.07 6144.05 3187.07 6356.37 2946.72"/><polyline class="cls-6" points="6728.4 2556.8 6893.46 2556.8 6919.1 3023.74 6920.82 3023.74 7132.7 2556.8 7305.76 2556.8 6979.1 3187.07 6791.97 3187.07 6728.4 2556.8"/><path class="cls-7" d="M4426.49,3553.09H4468c54.94,0,85.47-43.26,85.47-95,0-35.43-15.1-59.45-53.58-59.45h-40.45l-33,154.48m-11.65-199.81h88.56c68.29,0,104,35.37,104,95.49,0,85.42-47.35,149.65-141.72,149.65H4363Z"/><polyline class="cls-7" points="4668.87 3353.28 4855.94 3353.28 4846.68 3398.61 4713.49 3398.61 4702.48 3451.16 4825.72 3451.16 4816.79 3493.03 4693.56 3493.03 4680.88 3553.09 4816.15 3553.09 4806.5 3598.41 4617.35 3598.41 4668.87 3353.28"/><path class="cls-7" d="M5075.35,3495.76c-14.84,70.4-41.93,108.44-118.14,108.44-47.74,0-96.49-19.18-96.49-72.74,0-12.35,2.76-24.36,5.18-36.42l29.91-141.76h53.86L4919.81,3495c-1.72,7.95-5.14,23.07-5.14,30.91,0,12.35,8.89,33,46,33,44,0,52.19-23.35,60.06-60.39l30.56-145.26h53.88l-29.81,142.48"/><polyline class="cls-7" points="5197.51 3398.61 5120.62 3398.61 5130.27 3353.28 5334.86 3353.28 5325.27 3398.61 5251.78 3398.61 5209.87 3598.41 5155.63 3598.41 5197.51 3398.61"/><path class="cls-7" d="M5364.75,3517.11c-1.69,34.65,21.94,45.27,52.8,45.27,21.67,0,46.72-10.29,46.72-34.7,0-24-31.54-28.81-62.09-38.09-31-9.63-61.82-23.69-61.82-65.91,0-54.55,49.78-76.23,97.13-76.23,50.16,0,92,22.35,92,79h-51.13c1.08-27.47-18.88-37.09-43.88-37.09-20.63,0-42.93,7.84-42.93,30.58,0,24.31,41.51,30.54,58.31,34.6,38.45,10,65.59,24.8,65.59,68.73,0,58.67-53.22,81-99.9,81-67.63,0-101.91-28.08-101.91-87.09h51.13"/><path class="cls-7" d="M5725.19,3438.48c0-30.25-18.18-45.71-43.93-45.71-55.33,0-80.36,56-80.36,103,0,33.7,16.46,63.17,55.61,63.17,29.92,0,52.89-23,57.67-48.77h53.95c-22,68.35-59.18,94-112.28,94-68.69,0-108.89-39.43-108.89-108.44,0-79.3,51.16-148.31,133.91-148.31,56.67,0,99.6,31.25,98.21,91h-53.89"/><polyline class="cls-7" points="5839.09 3353.28 5893.42 3353.28 5873.51 3447.38 5972.71 3447.38 5992.68 3353.28 6046.84 3353.28 5994.96 3598.41 5940.8 3598.41 5963.1 3492.64 5863.83 3492.64 5841.59 3598.41 5787.37 3598.41 5839.09 3353.28"/><polyline class="cls-7" points="6093.23 3353.28 6280.24 3353.28 6271.07 3398.61 6137.88 3398.61 6126.81 3451.16 6250.1 3451.16 6241.2 3493.03 6117.91 3493.03 6105.24 3553.09 6240.48 3553.09 6230.86 3598.41 6041.73 3598.41 6093.23 3353.28"/><path class="cls-7" d="M6353,3464.17h49.83c28.41-.33,55.55-11.29,55.55-38.82,0-26.41-18.52-30.19-39.76-30.19h-51.22l-14.4,69m-30.87-110.89h117.06c44.32-.72,73.19,16.85,73.19,64.23,0,33.26-23.47,61.12-56.34,65.9v.73c20.25,6.11,25.36,24,25.36,43.21,0,11-1.67,27.47-1.67,42.59,0,11,.62,21.24,3.39,28.48h-52.54a71.9,71.9,0,0,1-2.34-16.52c0-16.46,2.72-33.25,2.72-49.77,0-23.64-14.07-29.53-35.37-29.53h-50.77l-20.24,95.82h-53.94Z"/><polyline class="cls-7" points="6665.46 3353.28 6719.73 3353.28 6677.8 3553.09 6796.31 3553.09 6786.63 3598.41 6614.02 3598.41 6665.46 3353.28"/><path class="cls-7" d="M6895.13,3503.65h65.51l-12-97.43H6948l-52.83,97.43m35.76-150.37h55.22L7027,3598.42h-53.61l-7.84-54.56h-91.7L6843,3598.42h-57.06Z"/><path class="cls-7" d="M7238.41,3438.48c0-30.25-18.18-45.71-43.87-45.71-55.34,0-80.42,56-80.42,103,0,33.7,16.52,63.17,55.67,63.17,29.86,0,52.83-23,57.67-48.77h53.88c-22,68.35-59.05,94-112.27,94-68.57,0-108.83-39.43-108.83-108.44,0-79.3,51.16-148.31,133.91-148.31,56.61,0,99.54,31.25,98.21,91h-53.95"/><path class="cls-7" d="M7383,3464.17h49.82c28.42-.33,55.56-11.29,55.56-38.82,0-26.41-18.52-30.19-39.82-30.19H7397.4l-14.45,69m-30.87-110.89h117c44.37-.72,73.18,16.85,73.18,64.23,0,33.26-23.36,61.12-56.33,65.9v.73c20.24,6.11,25.46,24,25.46,43.21,0,11-1.72,27.47-1.72,42.59,0,11,.61,21.24,3.45,28.48h-52.61a72.43,72.43,0,0,1-2.33-16.52c0-16.46,2.72-33.25,2.72-49.77,0-23.64-14.07-29.53-35.37-29.53h-50.77l-20.3,95.82h-53.88Z"/><path class="cls-7" d="M7672,3558.93c52.83,0,79.25-56.33,79.25-102.66,0-34.31-15.08-63.5-54.56-63.5-55.22,0-80.3,56-80.3,103,0,33.7,16.46,63.17,55.61,63.17m24.36-211.48c66.23,0,108.83,36.42,108.83,105,0,80.69-48.05,151.71-133.86,151.71-68.68,0-108.83-39.43-108.83-108.44C7562.51,3416.46,7613.62,3347.45,7696.37,3347.45Z"/><path class="cls-7" d="M7869.76,3517.11c-1.73,34.65,21.91,45.27,52.89,45.27,21.57,0,46.66-10.29,46.66-34.7,0-24-31.59-28.81-62.18-38.09-30.86-9.63-61.78-23.69-61.78-65.91,0-54.55,49.82-76.23,97.15-76.23,50.16,0,92,22.35,92,79h-51.11c1-27.47-18.9-37.09-43.93-37.09-20.63,0-42.93,7.84-42.93,30.58,0,24.31,41.49,30.54,58.34,34.6,38.48,10,65.56,24.8,65.56,68.73,0,58.67-53.16,81-99.93,81-67.63,0-101.88-28.08-101.88-87.09h51.16"/><path class="cls-7" d="M8092.21,3517.11c-1.67,34.65,21.9,45.27,52.82,45.27,21.69,0,46.72-10.29,46.72-34.7,0-24-31.53-28.81-62.12-38.09-30.92-9.63-61.84-23.69-61.84-65.91,0-54.55,49.77-76.23,97.21-76.23,50.16,0,92,22.35,92,79h-51.16c1.05-27.47-18.91-37.09-43.94-37.09-20.57,0-42.87,7.84-42.87,30.58,0,24.31,41.48,30.54,58.33,34.6,38.43,10,65.57,24.8,65.57,68.73,0,58.67-53.16,81-99.93,81-67.62,0-101.88-28.08-101.88-87.09h51.11"/><polyline class="cls-7" points="8311.92 3353.28 8498.99 3353.28 8489.71 3398.61 8356.52 3398.61 8345.57 3451.16 8468.8 3451.16 8459.9 3493.03 8336.61 3493.03 8323.93 3553.09 8459.18 3553.09 8449.61 3598.41 8260.43 3598.41 8311.92 3353.28"/><polyline class="cls-7" points="8699.86 3598.41 8639.08 3598.41 8610.89 3353.28 8664.83 3353.28 8681.01 3537.3 8681.62 3537.3 8774.66 3353.28 8830.66 3353.28 8699.86 3598.41"/><polyline class="cls-7" points="8852.63 3353.28 9039.7 3353.28 9030.47 3398.61 8897.22 3398.61 8886.27 3451.16 9009.5 3451.16 9000.55 3493.03 8877.32 3493.03 8864.64 3553.09 8999.88 3553.09 8990.26 3598.41 8801.19 3598.41 8852.63 3353.28"/><path class="cls-7" d="M9112.49,3464.17h49.77c28.53-.33,55.67-11.29,55.67-38.82,0-26.41-18.63-30.19-39.87-30.19H9126.9l-14.41,69m-30.92-110.89h117.07c44.26-.72,73.12,16.85,73.12,64.23,0,33.26-23.3,61.12-56.27,65.9v.73c20.23,6.11,25.4,24,25.4,43.21,0,11-1.71,27.47-1.71,42.59,0,11,.66,21.24,3.44,28.48h-52.55a69.39,69.39,0,0,1-2.39-16.52c0-16.46,2.78-33.25,2.78-49.77,0-23.64-14.12-29.53-35.43-29.53h-50.82L9084,3598.42h-53.84Z"/><path class="cls-7" d="M9360.69,3452.49h61.11c19.58,0,36.37-10.95,36.37-32.25,0-18.58-11-25.08-28.47-25.08h-57l-12.06,57.33m-22,104.05h67.68c24.3,0,42.21-13.4,42.21-39.43,0-25.8-23-27.86-42.54-27.86h-52.89Zm-9.18-203.26h102.88c49.16,0,79.75,10.68,79.75,57.34,0,27.86-17.18,53.55-46.05,57v.72c23.36,6.12,36.37,26.08,36.37,49.77,0,53.22-44.6,80.31-93.64,80.31H9277.93Z"/><path class="cls-7" d="M9609.93,3503.65h65.57l-12-97.43h-.73l-52.88,97.43m35.65-150.37h55.22l40.87,245.14h-53.5l-7.89-54.56h-91.65l-30.92,54.56h-57Z"/><polyline class="cls-7" points="9812.8 3353.28 9868.47 3353.28 9935.03 3527.68 9935.75 3527.68 9970.79 3353.28 10020.17 3353.28 9968.34 3598.41 9914.4 3598.41 9847.11 3426.41 9846.44 3426.41 9811.46 3598.41 9760.97 3598.41 9812.8 3353.28"/><path class="cls-7" d="M10078.84,3553.09h41.54c54.94,0,85.48-43.26,85.48-95,0-35.43-15.08-59.45-53.5-59.45h-40.54l-33,154.48m-11.62-199.81h88.47c68.41,0,104,35.37,104,95.49,0,85.42-47.32,149.65-141.69,149.65h-102.66Z"/><polyline class="cls-7" points="10402.33 3423.35 10535.96 3423.35 10529.34 3455.66 10434.19 3455.66 10426.35 3493.15 10514.44 3493.15 10507.99 3523.12 10420.01 3523.12 10410.89 3566.05 10507.54 3566.05 10500.7 3598.41 10365.57 3598.41 10402.33 3423.35"/><polyline class="cls-7" points="10536.96 3545.59 10591.18 3545.59 10579.89 3598.41 10525.61 3598.41 10536.96 3545.59"/><polyline class="cls-7" points="10739.16 3598.41 10678.38 3598.41 10650.24 3353.28 10704.13 3353.28 10720.25 3537.3 10720.92 3537.3 10814.01 3353.28 10869.9 3353.28 10739.16 3598.41"/><polyline class="cls-7" points="10817.12 3545.59 10871.29 3545.59 10860 3598.41 10805.78 3598.41 10817.12 3545.59"/><path class="cls-7" d="M4472.09,3985.13h-.67c-16.18,22-39.17,30.92-61.84,30.92-68.65,0-108.8-39.48-108.8-108.5,0-79.24,51.13-148.25,133.89-148.25,57.33,0,104,26.74,104,86.86h-53.92c-1.36-29.53-20-41.6-49.79-41.6-55.28,0-80.33,56-80.33,103,0,33.65,16.46,63.18,55.61,63.18,40.84,0,58.72-21.63,67.95-52.89H4421.6l8.59-40.09h104l-28.14,132.46h-34v-25.08"/><polyline class="cls-7" points="4598.74 3765.13 4785.82 3765.13 4776.59 3810.46 4643.37 3810.46 4632.39 3862.95 4755.65 3862.95 4746.7 3904.83 4623.49 3904.83 4610.78 3964.89 4746.03 3964.89 4736.41 4010.21 4547.27 4010.21 4598.74 3765.13"/><path class="cls-7" d="M4858.61,3876h49.74c28.53-.33,55.65-11.34,55.65-38.87,0-26.36-18.55-30.2-39.82-30.2H4873L4858.61,3876m-30.86-110.89h117.06c44.24-.66,73.1,16.8,73.1,64.18,0,33.31-23.36,61.12-56.31,65.9v.66c20.25,6.23,25.45,24.09,25.45,43.27,0,11-1.79,27.47-1.79,42.6,0,11,.73,21.3,3.48,28.47h-52.52a71.22,71.22,0,0,1-2.39-16.46c0-16.52,2.75-33.31,2.75-49.77,0-23.69-14.13-29.53-35.37-29.53h-50.83l-20.27,95.76h-53.89Z"/><polyline class="cls-7" points="5075.91 3765.13 5150.4 3765.13 5169.31 3942.59 5169.98 3942.59 5264.4 3765.13 5339.56 3765.13 5287.7 4010.21 5237.24 4010.21 5281.89 3815.24 5281.23 3815.24 5177.54 4010.21 5136.33 4010.21 5112.64 3815.24 5111.97 3815.24 5075.27 4010.21 5024.06 4010.21 5075.91 3765.13"/><path class="cls-7" d="M5419.53,3915.45h65.59L5473.05,3818h-.64l-52.88,97.48m35.73-150.32h55.27l40.85,245.08h-53.52l-7.93-54.55h-91.65l-30.91,54.55h-57Z"/><polyline class="cls-7" points="5622.48 3765.13 5678.03 3765.13 5744.66 3939.48 5745.38 3939.48 5780.36 3765.13 5829.8 3765.13 5777.97 4010.21 5724.08 4010.21 5656.79 3838.26 5656.13 3838.26 5621.09 4010.21 5570.65 4010.21 5622.48 3765.13"/><polyline class="cls-7" points="5971.94 3765.13 6026.16 3765.13 5984.28 3964.89 6102.79 3964.89 6093.11 4010.21 5920.44 4010.21 5971.94 3765.13"/><path class="cls-7" d="M6201.61,3915.45h65.56L6255.1,3818h-.66l-52.83,97.48m35.7-150.32h55.33l40.82,245.08h-53.55l-7.9-54.55h-91.7l-30.86,54.55h-57Z"/><path class="cls-7" d="M6544.89,3850.22c0-30.2-18.24-45.66-43.93-45.66-55.28,0-80.36,56-80.36,103,0,33.65,16.52,63.18,55.67,63.18,29.81,0,52.78-23,57.67-48.72h53.88c-22,68.29-59,94-112.27,94-68.63,0-108.83-39.48-108.83-108.5,0-79.24,51.16-148.25,133.85-148.25,56.73,0,99.6,31.19,98.21,90.92h-53.89"/><path class="cls-7" d="M6689.43,3876h49.77c28.53-.33,55.61-11.34,55.61-38.87,0-26.36-18.52-30.2-39.82-30.2h-51.16l-14.4,69.07m-30.87-110.89h117c44.32-.66,73.13,16.8,73.13,64.18,0,33.31-23.36,61.12-56.28,65.9v.66c20.24,6.23,25.36,24.09,25.36,43.27,0,11-1.73,27.47-1.73,42.6,0,11,.78,21.3,3.5,28.47h-52.49a64.4,64.4,0,0,1-2.39-16.46c0-16.52,2.66-33.31,2.66-49.77,0-23.69-14-29.53-35.31-29.53h-50.83L6661,4010.21h-53.88Z"/><path class="cls-7" d="M6978.44,3970.73c52.88,0,79.3-56.28,79.3-102.55,0-34.42-15.08-63.62-54.61-63.62-55.23,0-80.25,56-80.25,103,0,33.65,16.46,63.18,55.56,63.18m24.41-211.43c66.23,0,108.83,36.37,108.83,105,0,80.64-48.05,151.71-133.91,151.71-68.63,0-108.83-39.48-108.83-108.5C6868.94,3828.31,6920.1,3759.3,7002.85,3759.3Z"/><path class="cls-7" d="M7176.24,3928.85c-1.73,34.7,21.86,45.32,52.83,45.32,21.63,0,46.66-10.28,46.66-34.69,0-24-31.53-28.81-62.12-38.1-30.86-9.62-61.73-23.63-61.73-65.9,0-54.61,49.78-76.18,97.05-76.18,50.15,0,92.09,22.3,92.09,79H7289.8c1.05-27.47-18.85-37.14-43.88-37.14-20.58,0-42.93,8-42.93,30.58,0,24.36,41.54,30.53,58.33,34.7,38.43,10,65.57,24.7,65.57,68.68,0,58.67-53.27,81-99.93,81-67.63,0-101.88-28.19-101.88-87.2h51.16"/><path class="cls-7" d="M7398.69,3928.85c-1.79,34.7,21.9,45.32,52.77,45.32,21.69,0,46.77-10.28,46.77-34.69,0-24-31.59-28.81-62.18-38.1-30.8-9.62-61.73-23.63-61.73-65.9,0-54.61,49.72-76.18,97.1-76.18,50.17,0,92.09,22.3,92.09,79h-51.27c1.11-27.47-18.85-37.14-43.88-37.14-20.52,0-42.87,8-42.87,30.58,0,24.36,41.48,30.53,58.28,34.7,38.48,10,65.56,24.7,65.56,68.68,0,58.67-53.22,81-99.87,81-67.62,0-101.94-28.19-101.94-87.2h51.17"/><polyline class="cls-7" points="7618.35 3765.13 7805.53 3765.13 7796.13 3810.46 7663 3810.46 7652.05 3862.95 7775.28 3862.95 7766.32 3904.83 7643.09 3904.83 7630.41 3964.89 7765.66 3964.89 7756.09 4010.21 7566.91 4010.21 7618.35 3765.13"/><path class="cls-7" d="M7975.42,3915.45h65.51L8029,3818h-.66l-52.89,97.48m35.7-150.32h55.23l40.87,245.08h-53.55l-7.85-54.55h-91.7l-30.92,54.55h-57.06Z"/><path class="cls-7" d="M8180.68,3928.85c-1.72,34.7,22,45.32,52.94,45.32,21.58,0,46.66-10.28,46.66-34.69,0-24-31.59-28.81-62.17-38.1-30.87-9.62-61.84-23.63-61.84-65.9,0-54.61,49.83-76.18,97.2-76.18,50.11,0,92,22.3,92,79h-51.1c1-27.47-19-37.14-44-37.14-20.57,0-42.93,8-42.93,30.58,0,24.36,41.6,30.53,58.39,34.7,38.54,10,65.57,24.7,65.57,68.68,0,58.67-53.22,81-99.88,81-67.68,0-101.94-28.19-101.94-87.2h51.11"/><path class="cls-7" d="M8403.18,3928.85c-1.78,34.7,21.91,45.32,52.83,45.32,21.69,0,46.71-10.28,46.71-34.69,0-24-31.58-28.81-62.17-38.1-30.92-9.62-61.78-23.63-61.78-65.9,0-54.61,49.77-76.18,97.14-76.18,50.17,0,92,22.3,92,79h-51.17c1-27.47-19-37.14-44-37.14-20.58,0-42.88,8-42.88,30.58,0,24.36,41.54,30.53,58.39,34.7,38.42,10,65.56,24.7,65.56,68.68,0,58.67-53.27,81-99.93,81-67.62,0-102-28.19-102-87.2h51.22"/><path class="cls-7" d="M8694.91,3970.73c53,0,79.36-56.28,79.36-102.55,0-34.42-15.13-63.62-54.61-63.62-55.22,0-80.3,56-80.3,103,0,33.65,16.46,63.18,55.55,63.18m24.42-211.43c66.28,0,108.77,36.37,108.77,105,0,80.64-48,151.71-133.8,151.71-68.73,0-108.83-39.48-108.83-108.5C8585.47,3828.31,8636.57,3759.3,8719.33,3759.3Z"/><path class="cls-7" d="M9030.64,3850.22c0-30.2-18.14-45.66-43.88-45.66-55.23,0-80.42,56-80.42,103,0,33.65,16.58,63.18,55.73,63.18,29.8,0,52.83-23,57.67-48.72h53.88c-22,68.29-59.06,94-112.28,94-68.62,0-108.77-39.48-108.77-108.5,0-79.24,51.11-148.25,133.8-148.25,56.72,0,99.59,31.19,98.26,90.92h-54"/><polyline class="cls-7" points="9144.69 3765.13 9198.91 3765.13 9147.14 4010.21 9092.86 4010.21 9144.69 3765.13"/><path class="cls-7" d="M9278.55,3915.45h65.56L9332,3818h-.66l-52.83,97.48m35.7-150.32h55.27l40.88,245.08h-53.55l-7.9-54.55H9257.3l-31,54.55h-57Z"/><polyline class="cls-7" points="9507.55 3810.46 9430.64 3810.46 9440.26 3765.13 9644.91 3765.13 9635.29 3810.46 9561.77 3810.46 9519.84 4010.21 9465.67 4010.21 9507.55 3810.46"/><polyline class="cls-7" points="9672.27 3765.13 9726.55 3765.13 9674.72 4010.21 9620.5 4010.21 9672.27 3765.13"/><path class="cls-7" d="M9845.72,3970.73c52.88,0,79.24-56.28,79.24-102.55,0-34.42-15.07-63.62-54.55-63.62-55.28,0-80.3,56-80.3,103,0,33.65,16.41,63.18,55.61,63.18m24.36-211.43c66.23,0,108.83,36.37,108.83,105,0,80.64-48.11,151.71-133.86,151.71-68.73,0-108.88-39.48-108.88-108.5C9736.17,3828.31,9787.33,3759.3,9870.08,3759.3Z"/><polyline class="cls-7" points="10040.97 3765.13 10096.69 3765.13 10163.25 3939.48 10163.92 3939.48 10198.9 3765.13 10248.39 3765.13 10196.57 4010.21 10142.68 4010.21 10075.34 3838.26 10074.67 3838.26 10039.63 4010.21 9989.2 4010.21 10040.97 3765.13"/><rect class="cls-7" x="4234.34" y="4120.67" width="6622.99" height="16.67"/><path class="cls-7" d="M4415.94,4498.93h-51.52l-5.58-181.08-90.2,181.08H4216.1l-9.29-247.64h49.84l2.19,173.32,85-173.32h55.24l5.74,171.46,81.59-171.46h49.33Z"/><path class="cls-7" d="M4742.47,4498.93H4691l-5.58-181.08-90.2,181.08h-52.54l-9.29-247.64h49.83l2.2,173.32,85-173.32h55.24l5.74,171.46,81.59-171.46h49.33Z"/><path class="cls-7" d="M5069,4498.93h-51.52l-5.58-181.08-90.2,181.08h-52.54l-9.29-247.64h49.83l2.2,173.32,85-173.32h55.24l5.74,171.46,81.59-171.46h49.32Z"/><path class="cls-7" d="M5145.18,4452.14h48l-9.8,46.79h-48Z"/><path class="cls-7" d="M5231.33,4498.93l51.86-247.64h66.73q27.87,0,35.64.85a102.88,102.88,0,0,1,27.45,6.25,75.44,75.44,0,0,1,22,13.26,83.48,83.48,0,0,1,17.06,20.52,101.17,101.17,0,0,1,11.07,27.62A141.68,141.68,0,0,1,5467,4354q0,40-15.29,71t-38.43,49.24q-17.73,14.19-45.77,20.95-15.89,3.72-48.82,3.71Zm59.29-39.86h25.85q28,0,40.63-3.47a56.41,56.41,0,0,0,23-12.92q15-13.68,25.34-36.49t10.31-53.71q0-26.35-8.53-39.62t-21-17.65q-8.79-3-31.25-3h-29.57Z"/><path class="cls-7" d="M5848.49,4444.2h-98.14l-29.73,54.73h-52.37l140-247.64h56.59l40.2,247.64h-48.31Zm-6.25-41.21-14.36-99.67-59.8,99.67Z"/><path class="cls-7" d="M5476.37,4498.93l51.86-247.64h50.85L5536,4457.55h126l-8.62,41.38Z"/><path class="cls-7" d="M5982.71,4498.93h-65.89l109.3-125.34-61.49-122.3h53.21l24.16,46.46q1.17,2.53,16.55,34.29a34,34,0,0,1,2.2,4.56q20.61-25.17,34.63-41.22l39-44.09h64L6085.07,4381.7l61,117.23h-57.43L6070,4461.6q-14.53-29.55-19.26-42.4-6.58,10-33.95,41.22Z"/><path class="cls-7" d="M6296.06,4498.93h-54.4l-44.42-247.64h50.84l31.42,187.34L6382,4251.29h50.51Z"/><path class="cls-7" d="M6382,4452.14h48l-9.79,46.79h-48Z"/><path class="cls-7" d="M6468.19,4498.93l51.86-247.64h66.72q27.88,0,35.65.85a103.06,103.06,0,0,1,27.45,6.25,75.44,75.44,0,0,1,22,13.26,83.48,83.48,0,0,1,17.06,20.52,101.16,101.16,0,0,1,11.06,27.62,141.67,141.67,0,0,1,3.89,34.21q0,40-15.29,71t-38.43,49.24q-17.73,14.19-45.78,20.95-15.87,3.72-48.82,3.71Zm59.29-39.86h25.85q28,0,40.62-3.47a56.38,56.38,0,0,0,23.06-12.92q15-13.68,25.34-36.49t10.3-53.71q0-26.35-8.53-39.62t-21-17.65q-8.78-3-31.25-3h-29.56Z"/><path class="cls-7" d="M6717.18,4498.93l51.69-247.64h183.62l-8.61,41.39H6811.27l-11.82,56.25h128.21l-8.61,41.39H6790.83l-15.54,67.23h144.09l-8.78,41.38Z"/></g></svg>